# Blender 3.3.1
# www.blender.org
mtllib sixthCircleHIGHLIGHT.mtl
o quarterCircle
v -0.323777 -0.023619 0.162191
v -0.326610 0.020139 0.178787
v -0.322465 -0.023619 -0.006973
v -0.320747 0.020139 -0.004383
v -0.270752 -0.023619 -0.188607
v -0.263796 0.020139 -0.195793
v -0.176454 -0.023619 -0.366337
v -0.170120 0.020139 -0.369901
v -0.038384 -0.023619 -0.527352
v -0.045002 0.020139 -0.525492
v 0.098008 -0.023619 -0.642179
v 0.100783 0.020139 -0.639120
v -0.160505 -0.023619 0.164005
v -0.160505 0.020139 0.175068
v -0.155804 -0.023619 0.026925
v -0.155804 0.020139 0.026925
v -0.107164 -0.023619 -0.127190
v -0.107164 0.020139 -0.127190
v -0.034805 -0.023619 -0.270963
v -0.034805 0.020139 -0.270963
v 0.072495 -0.023619 -0.405067
v 0.072495 0.020139 -0.405067
v 0.192245 -0.023619 -0.503030
v 0.197274 0.020139 -0.497756
vn -0.9896 -0.1437 -0.0103
vn -0.9867 -0.1618 -0.0152
vn -0.9897 -0.1430 -0.0076
vn -0.9868 -0.1618 -0.0049
vn -0.9569 -0.0000 -0.2903
vn -0.8832 -0.0000 -0.4690
vn -0.8819 -0.0000 -0.4714
vn -0.7730 -0.0000 -0.6344
vn -0.6259 -0.1698 -0.7612
vn -0.6257 -0.1701 -0.7613
vn -0.6264 -0.1697 -0.7608
vn -0.6261 -0.1702 -0.7610
vn 0.9995 -0.0151 0.0275
vn 0.9569 -0.0000 0.2903
vn 0.8819 -0.0000 0.4714
vn 0.7730 -0.0000 0.6344
vn 0.5625 -0.0187 0.8266
vn 0.5570 -0.0286 0.8300
vn 0.5598 -0.0219 0.8283
vn 0.5634 -0.0198 0.8259
vn -0.0000 -1.0000 -0.0000
vn -0.0000 1.0000 -0.0000
vn 0.0560 -0.4607 0.8858
vn 0.0272 -0.4641 0.8854
vn 0.0107 -0.4677 0.8838
vn 0.0107 -0.4654 0.8850
vn 0.8258 0.0116 -0.5638
vn 0.8259 0.0116 -0.5637
vn 0.7431 0.3191 -0.5881
vn 0.7512 0.3217 -0.5763
vn 0.7377 0.3170 -0.5961
s 0
usemtl None
f 1//1 2//2 4//3 3//4
f 3//5 4//5 6//5 5//5
f 5//6 6//7 8//7 7//7
f 7//8 8//8 10//8 9//8
f 9//9 10//10 12//11 11//12
f 13//13 15//13 16//13 14//13
f 15//14 17//14 18//14 16//14
f 17//15 19//15 20//15 18//15
f 19//16 21//16 22//16 20//16
f 21//17 23//18 24//19 22//20
f 3//21 15//21 13//21 1//21
f 2//22 14//22 16//22 4//22
f 5//21 17//21 15//21 3//21
f 4//22 16//22 18//22 6//22
f 7//21 19//21 17//21 5//21
f 6//22 18//22 20//22 8//22
f 9//21 21//21 19//21 7//21
f 8//22 20//22 22//22 10//22
f 11//21 23//21 21//21 9//21
f 10//22 22//22 24//22 12//22
f 2//23 1//24 13//25 14//26
f 24//27 11//28 12//28
f 24//29 23//30 11//31
