# Blender 3.3.1
# www.blender.org
mtllib sixthCircle.mtl
o quarterCircle
v -0.329508 -0.023619 0.191616
v -0.329508 0.020139 0.191616
v -0.310293 -0.023619 -0.003474
v -0.310293 0.020139 -0.003474
v -0.253387 -0.023619 -0.191067
v -0.253387 0.020139 -0.191067
v -0.160977 -0.023619 -0.363954
v -0.160977 0.020139 -0.363954
v -0.036613 -0.023619 -0.515490
v -0.036613 0.020139 -0.515490
v 0.114969 -0.023619 -0.639853
v 0.114923 0.020139 -0.640071
v -0.183721 -0.023619 0.191616
v -0.183721 0.020139 0.191616
v -0.167308 -0.023619 0.024967
v -0.167308 0.020139 0.024967
v -0.118698 -0.023619 -0.135277
v -0.118698 0.020139 -0.135277
v -0.039760 -0.023619 -0.282959
v -0.039760 0.020139 -0.282959
v 0.066473 -0.023619 -0.412404
v 0.066473 0.020139 -0.412404
v 0.195918 -0.023619 -0.518636
v 0.195918 0.020139 -0.518636
v -0.329508 0.020139 0.191616
v -0.329508 -0.023619 0.191616
v -0.310293 -0.023619 -0.003474
v -0.310293 0.020139 -0.003474
v -0.253387 -0.023619 -0.191067
v -0.253387 0.020139 -0.191067
v -0.160977 -0.023619 -0.363954
v -0.160977 0.020139 -0.363954
v -0.036613 -0.023619 -0.515490
v -0.036613 0.020139 -0.515490
v -0.183721 0.020139 0.191616
v -0.183721 -0.023619 0.191616
v -0.167308 -0.023619 0.024967
v -0.167308 0.020139 0.024967
v -0.118698 -0.023619 -0.135277
v -0.118698 0.020139 -0.135277
v -0.039760 -0.023619 -0.282959
v -0.039760 0.020139 -0.282959
v 0.066473 -0.023619 -0.412404
v 0.066473 0.020139 -0.412404
v 0.195918 -0.023619 -0.518636
v 0.195918 -0.023619 -0.518636
vn -0.9952 -0.0000 -0.0980
vn -0.9569 -0.0000 -0.2903
vn -0.8819 -0.0000 -0.4714
vn -0.7730 -0.0000 -0.6344
vn -0.6344 -0.0000 -0.7730
vn -0.6344 -0.0001 -0.7730
vn 0.9952 -0.0000 0.0980
vn 0.9569 -0.0000 0.2903
vn 0.8819 -0.0000 0.4714
vn 0.7730 -0.0000 0.6344
vn 0.6344 -0.0000 0.7730
vn -0.0000 -1.0000 -0.0000
vn -0.0000 1.0000 -0.0000
vn -0.0000 -0.0000 1.0000
vn 0.6344 0.0002 0.7730
vn -0.0000 -0.0000 -1.0000
vn 0.8319 -0.0019 -0.5549
vn 0.8316 -0.0000 -0.5554
s 0
usemtl None
f 1//1 2//1 4//1 3//1
f 3//2 4//2 6//2 5//2
f 5//3 6//3 8//3 7//3
f 7//4 8//4 10//4 9//4
f 9//5 10//5 12//5 11//6
f 13//7 15//7 16//7 14//7
f 15//8 17//8 18//8 16//8
f 17//9 19//9 20//9 18//9
f 19//10 21//10 22//10 20//10
f 21//11 23//11 24//11 22//11
f 3//12 15//12 13//12 1//12
f 2//13 14//13 16//13 4//13
f 5//12 17//12 15//12 3//12
f 4//13 16//13 18//13 6//13
f 7//12 19//12 17//12 5//12
f 6//13 18//13 20//13 8//13
f 9//12 21//12 19//12 7//12
f 8//13 20//13 22//13 10//13
f 11//12 23//12 21//12 9//12
f 10//13 22//13 24//13 12//13
f 2//14 1//14 13//14 14//14
f 26//7 27//7 28//7 25//7
f 27//8 29//8 30//8 28//8
f 29//9 31//9 32//9 30//9
f 31//10 33//10 34//10 32//10
f 33//15 11//15 12//15 34//11
f 36//1 35//1 38//1 37//1
f 37//2 38//2 40//2 39//2
f 39//3 40//3 42//3 41//3
f 41//4 42//4 44//4 43//4
f 27//13 26//13 36//13 37//13
f 25//12 28//12 38//12 35//12
f 29//13 27//13 37//13 39//13
f 28//12 30//12 40//12 38//12
f 31//13 29//13 39//13 41//13
f 30//12 32//12 42//12 40//12
f 33//13 31//13 41//13 43//13
f 32//12 34//12 44//12 42//12
f 11//13 33//13 43//13 45//13
f 25//16 35//16 36//16 26//16
f 24//17 11//17 12//17
f 24//18 23//18 11//18
l 23 46
